<mxfile host="65bd71144e">
    <diagram id="l-X5Tqu5zQRZ1qrRY45H" name="Trang-1">
        <mxGraphModel dx="1517" dy="639" grid="1" gridSize="10" guides="1" tooltips="1" connect="1" arrows="1" fold="1" page="1" pageScale="1" pageWidth="827" pageHeight="1169" math="0" shadow="0">
            <root>
                <mxCell id="0"/>
                <mxCell id="1" parent="0"/>
                <mxCell id="0WoMqIFztLrsGl_XtHca-1" value="Actor" style="shape=umlActor;verticalLabelPosition=bottom;verticalAlign=top;html=1;outlineConnect=0;" parent="1" vertex="1">
                    <mxGeometry x="110" y="1270" width="30" height="60" as="geometry"/>
                </mxCell>
                <mxCell id="0WoMqIFztLrsGl_XtHca-2" value="Actor" style="shape=umlActor;verticalLabelPosition=bottom;verticalAlign=top;html=1;outlineConnect=0;" parent="1" vertex="1">
                    <mxGeometry x="740" y="1249" width="30" height="60" as="geometry"/>
                </mxCell>
                <mxCell id="0WoMqIFztLrsGl_XtHca-3" value="Khách hàng" style="rounded=0;whiteSpace=wrap;html=1;" parent="1" vertex="1">
                    <mxGeometry x="60" y="1340" width="120" height="60" as="geometry"/>
                </mxCell>
                <mxCell id="0WoMqIFztLrsGl_XtHca-4" value="database" style="rounded=0;whiteSpace=wrap;html=1;" parent="1" vertex="1">
                    <mxGeometry x="695" y="1320" width="120" height="60" as="geometry"/>
                </mxCell>
                <mxCell id="0WoMqIFztLrsGl_XtHca-5" value="" style="rounded=0;whiteSpace=wrap;html=1;" parent="1" vertex="1">
                    <mxGeometry x="290" y="1160" width="360" height="610" as="geometry"/>
                </mxCell>
                <mxCell id="0WoMqIFztLrsGl_XtHca-7" value="bán nhà" style="ellipse;whiteSpace=wrap;html=1;" parent="1" vertex="1">
                    <mxGeometry x="310" y="1270" width="120" height="80" as="geometry"/>
                </mxCell>
                <mxCell id="0WoMqIFztLrsGl_XtHca-9" value="Kí hợp đồng" style="ellipse;whiteSpace=wrap;html=1;" parent="1" vertex="1">
                    <mxGeometry x="420" y="1169" width="120" height="80" as="geometry"/>
                </mxCell>
                <mxCell id="0WoMqIFztLrsGl_XtHca-18" value="&amp;lt;&amp;lt;include&amp;gt;&amp;gt;" style="html=1;verticalAlign=bottom;labelBackgroundColor=none;endArrow=open;endFill=0;dashed=1;rounded=0;entryX=0.5;entryY=1;entryDx=0;entryDy=0;exitX=0.5;exitY=0;exitDx=0;exitDy=0;" parent="1" source="0WoMqIFztLrsGl_XtHca-7" target="0WoMqIFztLrsGl_XtHca-9" edge="1">
                    <mxGeometry width="160" relative="1" as="geometry">
                        <mxPoint x="330" y="1490" as="sourcePoint"/>
                        <mxPoint x="490" y="1490" as="targetPoint"/>
                    </mxGeometry>
                </mxCell>
                <mxCell id="0WoMqIFztLrsGl_XtHca-33" value="Cung cấp thông tin&amp;nbsp;" style="ellipse;whiteSpace=wrap;html=1;" parent="1" vertex="1">
                    <mxGeometry x="470" y="1330" width="120" height="80" as="geometry"/>
                </mxCell>
                <mxCell id="0WoMqIFztLrsGl_XtHca-36" value="&amp;lt;&amp;lt;include&amp;gt;&amp;gt;" style="html=1;verticalAlign=bottom;labelBackgroundColor=none;endArrow=open;endFill=0;dashed=1;rounded=0;entryX=0.583;entryY=0;entryDx=0;entryDy=0;entryPerimeter=0;" parent="1" source="0WoMqIFztLrsGl_XtHca-9" target="0WoMqIFztLrsGl_XtHca-33" edge="1">
                    <mxGeometry width="160" relative="1" as="geometry">
                        <mxPoint x="330" y="1450" as="sourcePoint"/>
                        <mxPoint x="490" y="1450" as="targetPoint"/>
                    </mxGeometry>
                </mxCell>
                <mxCell id="0WoMqIFztLrsGl_XtHca-41" value="" style="endArrow=classic;html=1;rounded=0;exitX=1;exitY=0.5;exitDx=0;exitDy=0;" parent="1" source="0WoMqIFztLrsGl_XtHca-56" target="0WoMqIFztLrsGl_XtHca-4" edge="1">
                    <mxGeometry width="50" height="50" relative="1" as="geometry">
                        <mxPoint x="580" y="1490" as="sourcePoint"/>
                        <mxPoint x="440" y="1460" as="targetPoint"/>
                    </mxGeometry>
                </mxCell>
                <mxCell id="0WoMqIFztLrsGl_XtHca-42" value="" style="endArrow=classic;html=1;rounded=0;exitX=0.672;exitY=1.027;exitDx=0;exitDy=0;exitPerimeter=0;" parent="1" source="0WoMqIFztLrsGl_XtHca-3" target="0WoMqIFztLrsGl_XtHca-56" edge="1">
                    <mxGeometry width="50" height="50" relative="1" as="geometry">
                        <mxPoint x="390" y="1650" as="sourcePoint"/>
                        <mxPoint x="355.7039497698711" y="1533.019678496194" as="targetPoint"/>
                    </mxGeometry>
                </mxCell>
                <mxCell id="_VpaXnl5ajKzjAwe97Mi-1" style="rounded=0;orthogonalLoop=1;jettySize=auto;html=1;entryX=0.66;entryY=1.013;entryDx=0;entryDy=0;entryPerimeter=0;" parent="1" source="0WoMqIFztLrsGl_XtHca-45" target="0WoMqIFztLrsGl_XtHca-4" edge="1">
                    <mxGeometry relative="1" as="geometry"/>
                </mxCell>
                <mxCell id="0WoMqIFztLrsGl_XtHca-45" value="Chọn căn nhà để mua" style="ellipse;whiteSpace=wrap;html=1;" parent="1" vertex="1">
                    <mxGeometry x="410" y="1640" width="120" height="80" as="geometry"/>
                </mxCell>
                <mxCell id="0WoMqIFztLrsGl_XtHca-51" value="" style="rounded=0;whiteSpace=wrap;html=1;" parent="1" vertex="1">
                    <mxGeometry x="-115" y="770" width="480" height="380" as="geometry"/>
                </mxCell>
                <mxCell id="0WoMqIFztLrsGl_XtHca-24" value="Actor" style="shape=umlActor;verticalLabelPosition=bottom;verticalAlign=top;html=1;outlineConnect=0;shadow=0;" parent="1" vertex="1">
                    <mxGeometry x="120" y="790" width="30" height="60" as="geometry"/>
                </mxCell>
                <mxCell id="0WoMqIFztLrsGl_XtHca-20" value="Actor" style="shape=umlActor;verticalLabelPosition=bottom;verticalAlign=top;html=1;outlineConnect=0;" parent="1" vertex="1">
                    <mxGeometry x="-40" y="1000" width="30" height="60" as="geometry"/>
                </mxCell>
                <mxCell id="0WoMqIFztLrsGl_XtHca-27" value="khách hàng bán nhà" style="rounded=0;whiteSpace=wrap;html=1;" parent="1" vertex="1">
                    <mxGeometry x="-85" y="1070" width="120" height="60" as="geometry"/>
                </mxCell>
                <mxCell id="0WoMqIFztLrsGl_XtHca-21" value="Actor" style="shape=umlActor;verticalLabelPosition=bottom;verticalAlign=top;html=1;outlineConnect=0;" parent="1" vertex="1">
                    <mxGeometry x="210" y="1000" width="30" height="60" as="geometry"/>
                </mxCell>
                <mxCell id="0WoMqIFztLrsGl_XtHca-31" style="edgeStyle=none;rounded=0;orthogonalLoop=1;jettySize=auto;html=1;entryX=0.835;entryY=1;entryDx=0;entryDy=0;entryPerimeter=0;" parent="1" source="0WoMqIFztLrsGl_XtHca-21" target="0WoMqIFztLrsGl_XtHca-26" edge="1">
                    <mxGeometry relative="1" as="geometry"/>
                </mxCell>
                <mxCell id="0WoMqIFztLrsGl_XtHca-26" value="Khách hàng" style="rounded=0;whiteSpace=wrap;html=1;" parent="1" vertex="1">
                    <mxGeometry x="70" y="860" width="120" height="60" as="geometry"/>
                </mxCell>
                <mxCell id="0WoMqIFztLrsGl_XtHca-30" style="rounded=0;orthogonalLoop=1;jettySize=auto;html=1;entryX=0.115;entryY=1.013;entryDx=0;entryDy=0;entryPerimeter=0;" parent="1" source="0WoMqIFztLrsGl_XtHca-20" target="0WoMqIFztLrsGl_XtHca-26" edge="1">
                    <mxGeometry relative="1" as="geometry"/>
                </mxCell>
                <mxCell id="0WoMqIFztLrsGl_XtHca-28" value="khách hàng mua nhà" style="rounded=0;whiteSpace=wrap;html=1;" parent="1" vertex="1">
                    <mxGeometry x="185" y="1070" width="120" height="60" as="geometry"/>
                </mxCell>
                <mxCell id="0WoMqIFztLrsGl_XtHca-55" value="" style="endArrow=classic;html=1;rounded=0;exitX=1;exitY=0.25;exitDx=0;exitDy=0;entryX=0;entryY=0;entryDx=0;entryDy=0;" parent="1" source="0WoMqIFztLrsGl_XtHca-3" target="0WoMqIFztLrsGl_XtHca-7" edge="1">
                    <mxGeometry width="50" height="50" relative="1" as="geometry">
                        <mxPoint x="340" y="1540" as="sourcePoint"/>
                        <mxPoint x="390" y="1490" as="targetPoint"/>
                    </mxGeometry>
                </mxCell>
                <mxCell id="0WoMqIFztLrsGl_XtHca-56" value="Tìm kiếm theo tiêu chí của khách hàng&lt;br&gt;&lt;br&gt;&lt;br&gt;extension points&amp;nbsp;&lt;br&gt;căn nhà tìm kiếm phù hợp với tiêu chí" style="shape=lineEllipse;perimeter=ellipsePerimeter;whiteSpace=wrap;html=1;backgroundOutline=1;shadow=0;" parent="1" vertex="1">
                    <mxGeometry x="340" y="1430" width="240" height="130" as="geometry"/>
                </mxCell>
                <mxCell id="0WoMqIFztLrsGl_XtHca-60" value="" style="endArrow=classic;startArrow=classic;html=1;rounded=0;exitX=1;exitY=0.75;exitDx=0;exitDy=0;" parent="1" source="0WoMqIFztLrsGl_XtHca-3" target="0WoMqIFztLrsGl_XtHca-33" edge="1">
                    <mxGeometry width="50" height="50" relative="1" as="geometry">
                        <mxPoint x="340" y="1320" as="sourcePoint"/>
                        <mxPoint x="390" y="1270" as="targetPoint"/>
                    </mxGeometry>
                </mxCell>
                <mxCell id="aUpXMmrre9InevTT2Pyr-3" value="&amp;lt;&amp;lt;extend&amp;gt;&amp;gt;" style="html=1;verticalAlign=bottom;labelBackgroundColor=none;endArrow=open;endFill=0;dashed=1;rounded=0;exitX=0.5;exitY=0;exitDx=0;exitDy=0;entryX=0.442;entryY=0.991;entryDx=0;entryDy=0;entryPerimeter=0;" parent="1" source="0WoMqIFztLrsGl_XtHca-45" target="0WoMqIFztLrsGl_XtHca-56" edge="1">
                    <mxGeometry width="160" relative="1" as="geometry">
                        <mxPoint x="350" y="1590" as="sourcePoint"/>
                        <mxPoint x="510" y="1590" as="targetPoint"/>
                    </mxGeometry>
                </mxCell>
                <mxCell id="_VpaXnl5ajKzjAwe97Mi-3" value="" style="endArrow=classic;html=1;rounded=0;exitX=0.198;exitY=1.027;exitDx=0;exitDy=0;exitPerimeter=0;entryX=0;entryY=0.5;entryDx=0;entryDy=0;" parent="1" source="0WoMqIFztLrsGl_XtHca-3" target="0WoMqIFztLrsGl_XtHca-45" edge="1">
                    <mxGeometry width="50" height="50" relative="1" as="geometry">
                        <mxPoint x="510" y="1510" as="sourcePoint"/>
                        <mxPoint x="560" y="1460" as="targetPoint"/>
                    </mxGeometry>
                </mxCell>
                <mxCell id="_VpaXnl5ajKzjAwe97Mi-44" value="" style="endArrow=classic;startArrow=classic;html=1;rounded=0;" parent="1" source="0WoMqIFztLrsGl_XtHca-33" target="0WoMqIFztLrsGl_XtHca-4" edge="1">
                    <mxGeometry width="50" height="50" relative="1" as="geometry">
                        <mxPoint x="510" y="1460" as="sourcePoint"/>
                        <mxPoint x="560" y="1410" as="targetPoint"/>
                    </mxGeometry>
                </mxCell>
            </root>
        </mxGraphModel>
    </diagram>
</mxfile>